<svg fill="currentColor" viewBox="0 0 512 512" xmlns="http://www.w3.org/2000/svg" aria-hidden="true">
<path d="M322.873,173.756l-27.031-29.215V31.347h7.178V0h-7.178h-79.663h-7.199v31.347h7.199v113.152l-27.052,29.257c-18.954,20.501-29.738,46.916-30.542,74.731h15.694h15.673h105.754v204.758H189.879h-15.673h-15.673v22.559c0,19.958,16.238,36.195,36.195,36.195h122.546c19.958,0,36.195-16.238,36.195-36.195V251.873C353.468,222.825,342.601,195.082,322.873,173.756z"/>
<polygon points="189.879,421.898 264.359,421.898 264.359,343.771 189.879,343.771 174.205,343.771 158.532,343.771 158.532,421.898 174.205,421.898"/>
<polygon points="189.879,312.424 264.359,312.424 264.359,279.834 189.879,279.834 174.205,279.834 158.532,279.834 158.532,312.424 174.205,312.424"/>
</svg>
